<?xml version="1.0" encoding="iso-8859-1"?>
<!-- Generator: Adobe Illustrator 16.0.0, SVG Export Plug-In . SVG Version: 6.00 Build 0)  -->
<!DOCTYPE svg PUBLIC "-//W3C//DTD SVG 1.1//EN" "http://www.w3.org/Graphics/SVG/1.1/DTD/svg11.dtd">
<svg version="1.1" id="Layer_1" xmlns="http://www.w3.org/2000/svg" xmlns:xlink="http://www.w3.org/1999/xlink" x="0px" y="0px"
	 width="92.781px" height="38.043px" viewBox="0 0 92.781 38.043" style="enable-background:new 0 0 92.781 38.043;"
	 xml:space="preserve">
<g>
	<path style="fill-rule:evenodd;clip-rule:evenodd;fill:#FFCC07;" d="M65.448,20.907c0.817,0.804,1.577,1.647,2.454,2.374
		c2.288,1.9,4.893,2.805,7.853,2.282c2.831-0.5,5.034-1.932,5.944-4.813c1.324-4.194-1.571-8.48-5.937-8.78
		c-2.105-0.145-3.763,0.733-4.805,2.615c-0.71,1.284-0.351,2.539,0.901,3.313c0.387,0.24,0.8,0.421,1.239,0.537
		c0.404,0.104,0.691,0.034,0.661-0.475c-0.007-0.107,0.027-0.223,0.005-0.324c-0.42-1.804,1.704-3.009,3.178-2.665
		c1.397,0.328,2.363,1.154,2.797,2.522c0.393,1.244-0.021,2.317-0.889,3.226c-1.312,1.377-2.997,1.875-4.834,2.001
		c-4.905,0.336-7.651-4.827-6.592-8.563c0.633-2.239,2.26-3.562,4.315-4.4c4.733-1.933,10.86,0.53,12.78,5.179
		c1.863,4.506,0.245,9.402-4.528,11.995c-5.734,3.114-11.275,0.017-13.33-3.311C66.136,22.773,65.779,21.851,65.448,20.907z"/>
	<path style="fill:#FFCC07;" d="M59.382,15.642c0.66,0.178,1.221,0.327,1.699,0.438c0.481,0.11,0.868,0.194,1.167,0.236
		c0.474,0.066,0.948,0.099,1.42,0.088c0.473,0,0.938-0.044,1.397-0.121l0.382,1.498c-0.222,0.074-0.45,0.153-0.687,0.219
		c-0.239,0.056-0.481,0.115-0.733,0.162c-0.639,0.123-1.323,0.197-2.053,0.212c-0.733,0.017-1.509-0.014-2.333-0.104L59.382,15.642z
		"/>
	<path style="fill:#FFCC07;" d="M61.332,28.039c0.536-0.424,0.992-0.786,1.386-1.076c0.399-0.292,0.721-0.523,0.978-0.681
		c0.409-0.249,0.831-0.465,1.269-0.643c0.434-0.187,0.879-0.331,1.33-0.443l-0.242-1.527c-0.233,0.02-0.474,0.039-0.716,0.071
		c-0.241,0.042-0.488,0.084-0.739,0.142c-0.634,0.14-1.292,0.344-1.969,0.619c-0.679,0.275-1.379,0.611-2.101,1.019L61.332,28.039z"
		/>
	<path style="fill:#FFCC07;" d="M76.565,1.196c-0.123,0.671-0.227,1.244-0.296,1.728c-0.07,0.491-0.122,0.882-0.141,1.184
		c-0.027,0.477-0.02,0.952,0.029,1.421C76.197,6,76.278,6.46,76.392,6.911l-1.461,0.505c-0.092-0.214-0.189-0.436-0.274-0.666
		c-0.078-0.233-0.154-0.472-0.223-0.718c-0.174-0.625-0.305-1.301-0.381-2.029c-0.075-0.729-0.108-1.504-0.087-2.334L76.565,1.196z"
		/>
	<path style="fill:#FFCC07;" d="M92.3,19.389c-0.662-0.163-1.229-0.303-1.707-0.403c-0.483-0.1-0.872-0.175-1.172-0.212
		c-0.475-0.057-0.949-0.08-1.422-0.059c-0.471,0.011-0.936,0.063-1.392,0.15l-0.413-1.489c0.219-0.081,0.446-0.162,0.681-0.233
		c0.238-0.062,0.48-0.124,0.732-0.179c0.634-0.134,1.316-0.224,2.046-0.254c0.733-0.032,1.509-0.018,2.336,0.056L92.3,19.389z"/>
	<path style="fill:#FFCC07;" d="M87.991,29.563c-0.338-0.485-0.628-0.899-0.882-1.235c-0.258-0.337-0.468-0.605-0.644-0.797
		c-0.276-0.298-0.572-0.568-0.891-0.802c-0.313-0.241-0.647-0.445-0.992-0.617l0.577-1.433c0.188,0.052,0.383,0.105,0.578,0.172
		c0.189,0.076,0.383,0.153,0.577,0.243c0.489,0.226,0.983,0.517,1.476,0.881c0.496,0.363,0.992,0.787,1.489,1.286L87.991,29.563z"/>
	<path style="fill:#FFCC07;" d="M89.059,6.917c-0.583,0.355-1.082,0.66-1.488,0.928c-0.413,0.272-0.739,0.495-0.979,0.682
		c-0.374,0.296-0.723,0.617-1.042,0.966c-0.326,0.343-0.617,0.711-0.876,1.096l-1.349-0.757c0.099-0.211,0.2-0.431,0.315-0.649
		c0.124-0.21,0.25-0.427,0.389-0.644c0.351-0.545,0.769-1.091,1.262-1.631c0.494-0.542,1.052-1.083,1.686-1.618L89.059,6.917z"/>
	<path style="fill:#FFCC07;" d="M62.428,7.813c0.656,0.188,1.217,0.347,1.683,0.499c0.469,0.153,0.842,0.279,1.125,0.397
		c0.439,0.187,0.861,0.403,1.26,0.654c0.405,0.243,0.783,0.52,1.137,0.822l1.097-1.088c-0.151-0.179-0.307-0.363-0.476-0.541
		c-0.174-0.171-0.354-0.347-0.545-0.518c-0.484-0.432-1.033-0.848-1.651-1.237C65.435,6.411,64.754,6.038,64,5.691L62.428,7.813z"/>
</g>
<path style="fill-rule:evenodd;clip-rule:evenodd;fill:#FFFFFF;" d="M38.556,20.079c0.162,0.158,0.312,0.323,0.484,0.465
	c0.45,0.375,0.964,0.551,1.545,0.449c0.56-0.099,0.993-0.379,1.172-0.945c0.261-0.822-0.311-1.664-1.169-1.722
	c-0.415-0.028-0.741,0.144-0.947,0.514c-0.139,0.25-0.068,0.498,0.179,0.65c0.076,0.047,0.156,0.083,0.243,0.105
	c0.08,0.021,0.137,0.006,0.13-0.093c-0.001-0.022,0.007-0.045,0.001-0.064c-0.082-0.353,0.337-0.589,0.626-0.523
	c0.275,0.064,0.464,0.226,0.551,0.494c0.077,0.244-0.005,0.455-0.176,0.633c-0.257,0.271-0.589,0.369-0.951,0.393
	c-0.967,0.067-1.508-0.947-1.299-1.68c0.126-0.438,0.446-0.698,0.851-0.862c0.932-0.378,2.139,0.104,2.517,1.016
	c0.367,0.884,0.047,1.845-0.892,2.353c-1.13,0.611-2.221,0.004-2.625-0.649C38.692,20.444,38.622,20.264,38.556,20.079z"/>
<path style="fill-rule:evenodd;clip-rule:evenodd;fill:#FFFFFF;" d="M79.246,37.776c-2.979-0.015-5.555-0.452-7.808-1.108
	c-4.106-1.198-8.478-1.232-13.115-0.522c-2.597,0.399-5.036,0.921-7.657,1.3c-1.961,0.283-3.958,0.515-6.072,0.58
	c-3.71,0.114-6.917-0.365-9.895-1.118c-1.416-0.358-2.69-0.779-4.032-1.173c-4.25-1.242-8.831-1.317-13.68-0.532
	c-3.4,0.553-6.481,1.308-9.696,1.981c-1.461,0.303-2.894,0.636-4.55,0.797c-0.456,0.045-0.98,0.127-1.31-0.042
	c-0.317-0.162,0.013-0.332,0.265-0.478c0.952-0.544,2.237-0.986,3.569-1.398c3.785-1.17,7.974-2.097,12.691-2.687
	c2.257-0.282,4.585-0.46,6.958-0.464c3.644-0.004,6.922,0.405,9.704,1.298c1.832,0.589,3.772,1.128,6.14,1.401
	c2.871,0.332,5.611,0.111,8.297-0.303c2.812-0.435,5.447-1.006,8.326-1.39c3.906-0.518,7.816-0.688,11.758-0.047
	c1.981,0.322,3.521,0.87,5.237,1.331c1.581,0.423,3.178,0.831,5.24,0.892c1.545,0.044,2.913-0.131,4.233-0.39
	c1.758-0.344,3.342-0.783,4.939-1.212c0.839-0.225,1.716-0.423,2.748-0.514c0.327-0.029,0.663-0.078,0.911,0.032
	c0.253,0.111,0.163,0.25,0.011,0.369c-0.35,0.277-0.845,0.525-1.396,0.75c-1.885,0.765-3.809,1.519-6.261,2.055
	C83.091,37.558,81.271,37.794,79.246,37.776z"/>
<path style="fill:#FFFFFF;" d="M71.712,17.452c-0.419,1.591-0.774,2.946-1.053,4.104c-0.278,1.172-0.495,2.113-0.635,2.853
	c-0.216,1.172-0.388,2.359-0.496,3.564c-0.124,1.201-0.186,2.405-0.201,3.607l-2.168,0.248c-0.047-0.603-0.094-1.22-0.125-1.852
	c-0.015-0.632-0.031-1.28-0.031-1.942c0-1.681,0.078-3.455,0.248-5.321c0.171-1.866,0.417-3.825,0.759-5.877L71.712,17.452z"/>
<path style="fill:#FFFFFF;" d="M77.913,28.42c0.016-0.68,0.033-1.095,0.033-1.266c0-0.555-0.093-0.971-0.279-1.25
	c-0.187-0.293-0.45-0.431-0.821-0.431c-0.356,0-0.711,0.153-1.084,0.463c-0.387,0.323-0.774,0.786-1.191,1.402l-0.264,4.674
	l-1.642,0.23l-0.976-8.296l3.113-0.65l-0.14,2.607c0.449-0.601,0.929-1.049,1.424-1.357c0.513-0.292,1.023-0.446,1.582-0.446
	c0.727,0,1.315,0.261,1.78,0.8c0.465,0.541,0.806,1.358,1.022,2.454l0.837,4.225l-3.501,0.617
	C77.868,30.348,77.899,29.098,77.913,28.42z"/>
<path style="fill:#FFFFFF;" d="M87.593,28.42c0.016-0.68,0.016-1.095,0.016-1.266c0-0.555-0.078-0.971-0.264-1.25
	c-0.186-0.293-0.465-0.431-0.819-0.431c-0.358,0-0.714,0.153-1.085,0.463c-0.387,0.323-0.775,0.786-1.193,1.402l-0.263,4.674
	l-1.644,0.23l-0.974-8.296l3.114-0.65l-0.14,2.607c0.451-0.601,0.914-1.049,1.425-1.357c0.496-0.292,1.022-0.446,1.58-0.446
	c0.728,0,1.316,0.261,1.782,0.8c0.465,0.541,0.803,1.358,1.021,2.454l0.836,4.225l-3.5,0.617
	C87.531,30.348,87.563,29.098,87.593,28.42z"/>
<path style="fill:#FFFFFF;" d="M5.566,31.26l0.655-11.576c1.996,8.911,4.567,11.937,7.71,4.932c0.607,3.009,1.585,6.051,4.113,7.835
	l0.325-0.712c-3.355-3.284-2.61-5.233-4.845-15.525l-4.14,8.27l-3.705-8.009l-1.778,0.073l-1.316,14.25L5.566,31.26z"/>
<path style="fill:#FFFFFF;" d="M26.448,27.369c-0.161-0.755-0.38-1.452-0.7-2.118c-0.394-0.843-0.889-1.481-1.457-1.901
	c-0.583-0.421-1.253-0.625-2.011-0.625c-0.947,0-1.762,0.174-2.477,0.552c-0.7,0.363-1.297,0.915-1.777,1.655l0.465,0.435
	c0.308-0.393,0.671-0.696,1.079-0.885c0.394-0.204,0.844-0.305,1.34-0.305c0.467,0,0.846,0.087,1.137,0.276
	c0.305,0.188,0.509,0.465,0.642,0.827c-1.546,0.435-2.711,0.973-3.483,1.567c-0.772,0.61-1.165,1.306-1.165,2.074
	c0,0.437,0.087,0.813,0.276,1.148c0.189,0.318,0.465,0.595,0.831,0.796c0.306,0.189,0.641,0.32,1.035,0.407
	c0.393,0.087,0.814,0.132,1.282,0.132c0.845,0,1.689-0.089,2.549-0.291c0.875-0.188,1.734-0.494,2.623-0.886l0.014-0.464
	C26.665,28.92,26.593,28.122,26.448,27.369z M23.286,29.734c0,0.203-0.016,0.391-0.016,0.609c-0.203,0.101-0.466,0.188-0.8,0.247
	c-0.321,0.043-0.714,0.074-1.181,0.074c-0.466,0-1.196-3.324-0.875-3.513c0.321-0.189,0.7-0.376,1.138-0.552
	c0.424-0.174,0.903-0.334,1.442-0.492c0.103,0.492,0.175,1,0.218,1.494c0.058,0.508,0.074,1.017,0.074,1.539V29.734z"/>
<path style="fill:#FFFFFF;" d="M33.348,16.321l0.348,7.467c-0.272-0.277-0.608-0.487-1.003-0.627
	c-0.396-0.142-0.86-0.214-1.395-0.214c-0.563,0-1.088,0.088-1.572,0.261c-0.483,0.172-0.921,0.432-1.314,0.778
	c-0.415,0.362-0.726,0.775-0.934,1.237c-0.208,0.461-0.312,0.973-0.312,1.534c0,1.037,0.361,1.927,1.084,2.668
	c0.723,0.743,1.602,1.115,2.638,1.115c0.638,0,1.215-0.139,1.729-0.416c0.516-0.279,0.969-0.692,1.361-1.242l0.086,2.13l1.524,0.131
	l1.226-15.601L33.348,16.321z M33.629,27.772c-0.131,0.355-0.327,0.682-0.589,0.983c-0.279,0.318-0.585,0.553-0.922,0.709
	c-0.335,0.156-0.706,0.235-1.109,0.235c-0.194,0-0.389-0.023-0.589-0.064c-0.2-0.042-0.398-0.105-0.598-0.191
	c0.018-0.029,1.056-5.318,0.999-5.612h0.163c0.951,0,1.66,0.23,2.134,0.689c0.473,0.459,0.709,1.164,0.709,2.108
	C33.826,27.039,33.759,27.418,33.629,27.772z"/>
<path style="fill:#FFFFFF;" d="M48.294,16.321l0.349,7.467c-0.272-0.277-0.606-0.487-1.003-0.627
	c-0.396-0.142-0.859-0.214-1.396-0.214c-0.563,0-1.085,0.088-1.568,0.261c-0.484,0.172-0.923,0.432-1.316,0.778
	c-0.415,0.362-0.727,0.775-0.935,1.237c-0.207,0.461-0.312,0.973-0.312,1.534c0,1.037,0.362,1.927,1.084,2.668
	c0.724,0.743,1.602,1.115,2.638,1.115c0.639,0,1.213-0.139,1.729-0.416c0.515-0.279,0.969-0.692,1.362-1.242l0.086,2.13l1.523,0.131
	l1.225-15.601L48.294,16.321z M48.576,27.772c-0.132,0.355-0.328,0.682-0.59,0.983c-0.278,0.318-0.586,0.553-0.922,0.709
	c-0.334,0.156-0.705,0.235-1.109,0.235c-0.193,0-0.391-0.023-0.59-0.064c-0.2-0.042-0.398-0.105-0.598-0.191
	c0.016-0.029,1.055-5.318,1-5.612h0.161c0.951,0,1.662,0.23,2.135,0.689c0.473,0.459,0.709,1.164,0.709,2.108
	C48.772,27.039,48.707,27.418,48.576,27.772z"/>
<polygon style="fill:#FFFFFF;" points="41.212,31.62 37.613,31.155 38.954,22.884 40.556,22.884 "/>
<g>
	<path style="fill:#FFFFFF;" d="M61.942,23.991c-0.059,0.466-0.205,0.799-0.435,1.001c-0.232,0.202-0.549,0.278-0.956,0.228
		c-0.368-0.046-0.636-0.149-0.803-0.31c-0.167-0.161-0.233-0.379-0.2-0.654c0.019-0.135,0.069-0.252,0.157-0.354
		c0.087-0.1,0.209-0.181,0.366-0.241l0.223,0.212c-0.045,0.04-0.081,0.08-0.11,0.119c-0.028,0.039-0.045,0.077-0.048,0.116
		c-0.015,0.111,0.01,0.2,0.071,0.261c0.061,0.061,0.158,0.099,0.287,0.115c0.18,0.022,0.319-0.004,0.414-0.079
		c0.096-0.078,0.155-0.208,0.177-0.393c0.019-0.145-0.002-0.281-0.063-0.408c-0.062-0.126-0.164-0.241-0.304-0.344
		c-0.11-0.082-0.235-0.148-0.375-0.199c-0.14-0.052-0.293-0.088-0.461-0.109c-0.215-0.027-0.413-0.024-0.592,0.007
		c-0.179,0.032-0.352,0.092-0.52,0.18c-0.178,0.098-0.318,0.222-0.417,0.375c-0.1,0.153-0.162,0.33-0.188,0.532
		c-0.024,0.196,0.027,0.398,0.157,0.606c0.127,0.208,0.327,0.422,0.598,0.645c0.489,0.403,0.862,0.711,1.121,0.919
		c0.257,0.209,0.393,0.324,0.407,0.341c0.274,0.292,0.464,0.595,0.575,0.908s0.143,0.647,0.098,1.001
		c-0.06,0.475-0.202,0.891-0.428,1.251c-0.224,0.362-0.54,0.66-0.94,0.896c-0.367,0.217-0.766,0.368-1.196,0.451
		c-0.432,0.084-0.894,0.094-1.383,0.034c-0.324-0.041-0.626-0.116-0.911-0.229c-0.285-0.111-0.556-0.261-0.814-0.447
		c-0.265-0.186-0.488-0.401-0.673-0.648c-0.185-0.245-0.33-0.517-0.437-0.816l0.706-0.505c0.199,0.513,0.472,0.914,0.82,1.198
		c0.349,0.283,0.769,0.456,1.26,0.515c0.446,0.056,0.827-0.029,1.145-0.256c0.317-0.227,0.505-0.557,0.559-0.991
		c0.035-0.28,0.006-0.563-0.087-0.847c-0.094-0.283-0.254-0.567-0.482-0.853c-0.211-0.238-0.426-0.476-0.644-0.714
		c-0.217-0.239-0.434-0.477-0.648-0.715c-0.223-0.291-0.38-0.584-0.477-0.882c-0.093-0.297-0.121-0.6-0.083-0.911
		c0.047-0.374,0.173-0.703,0.374-0.979c0.202-0.277,0.475-0.508,0.819-0.693c0.301-0.163,0.629-0.267,0.982-0.313
		c0.353-0.048,0.731-0.046,1.134,0.003c0.33,0.041,0.63,0.108,0.894,0.201c0.262,0.093,0.492,0.208,0.686,0.346
		c0.257,0.18,0.438,0.391,0.544,0.632C61.944,23.433,61.978,23.701,61.942,23.991z"/>
	<circle style="fill:#FFFFFF;" cx="54.672" cy="28.143" r="0.946"/>
</g>
<g>
	<path style="fill:#FFFFFF;" d="M56.924,15.296c0,0.415-0.146,0.901-0.458,1.462c-0.313,0.559-0.771,1.192-1.384,1.886l-0.688-0.435
		c0.261-0.354,0.468-0.665,0.645-0.934c0.178-0.28,0.313-0.518,0.407-0.726c-0.385,0-0.739-0.135-1.04-0.394
		c-0.292-0.269-0.447-0.601-0.447-0.996c0-0.393,0.155-0.714,0.457-0.984c0.301-0.269,0.645-0.393,1.042-0.393
		c0.436,0,0.799,0.134,1.071,0.424C56.788,14.488,56.924,14.852,56.924,15.296z"/>
</g>
</svg>
